<svg width="17" height="17" viewBox="0 0 17 17" fill="none" xmlns="http://www.w3.org/2000/svg">
<path fill-rule="evenodd" clip-rule="evenodd" d="M4.16667 0C1.86548 0 0 1.86548 0 4.16667V12.5C0 14.8012 1.86548 16.6667 4.16667 16.6667H12.5C14.8012 16.6667 16.6667 14.8012 16.6667 12.5V4.16667C16.6667 1.86548 14.8012 0 12.5 0H4.16667ZM5 5.83333C5 5.3731 5.3731 5 5.83333 5C6.29357 5 6.66667 5.3731 6.66667 5.83333C6.66667 6.29357 6.29357 6.66667 5.83333 6.66667C5.3731 6.66667 5 6.29357 5 5.83333ZM5.83333 3.33333C4.45262 3.33333 3.33333 4.45262 3.33333 5.83333C3.33333 7.21405 4.45262 8.33333 5.83333 8.33333C7.21405 8.33333 8.33333 7.21405 8.33333 5.83333C8.33333 4.45262 7.21405 3.33333 5.83333 3.33333ZM10.4219 10.1816C10.7117 9.81938 11.241 9.76387 11.5995 10.0565L13.2007 11.46C13.5469 11.7633 14.0734 11.7286 14.3767 11.3825C14.6801 11.0364 14.6454 10.5099 14.2993 10.2066L12.6811 8.78828L12.6731 8.78163C11.5974 7.8852 9.99523 8.04702 9.12048 9.14045L7.78783 10.8063C7.52689 11.1324 7.05987 11.205 6.71232 10.9733C5.65017 10.2652 4.22456 10.4826 3.42155 11.4725L2.28575 12.7889C1.98509 13.1373 2.02383 13.6635 2.37228 13.9642C2.72073 14.2649 3.24694 14.2261 3.54761 13.8777L4.70262 12.5391L4.7123 12.527C4.97324 12.2008 5.44026 12.1283 5.78781 12.36C6.85469 13.0712 8.28828 12.8487 9.08928 11.8474L10.4219 10.1816Z" fill="#121212"/>
</svg>

