<svg width="20" height="20" viewBox="0 0 20 20" fill="none" xmlns="http://www.w3.org/2000/svg">
<path fill-rule="evenodd" clip-rule="evenodd" d="M5.00008 1.66699C3.15913 1.66699 1.66675 3.15938 1.66675 5.00033V5.83366C1.66675 7.67461 3.15913 9.16699 5.00008 9.16699H5.83341C7.67436 9.16699 9.16675 7.67461 9.16675 5.83366V5.00033C9.16675 3.15938 7.67436 1.66699 5.83341 1.66699H5.00008ZM14.1667 1.66699C12.3258 1.66699 10.8334 3.15938 10.8334 5.00033V5.83366C10.8334 7.67461 12.3258 9.16699 14.1667 9.16699H15.0001C16.841 9.16699 18.3334 7.67461 18.3334 5.83366V5.00033C18.3334 3.15938 16.841 1.66699 15.0001 1.66699H14.1667ZM5.00008 10.8337C3.15913 10.8337 1.66675 12.326 1.66675 14.167V15.0003C1.66675 16.8413 3.15913 18.3337 5.00008 18.3337H5.83341C7.67436 18.3337 9.16675 16.8413 9.16675 15.0003V14.167C9.16675 12.326 7.67436 10.8337 5.83341 10.8337H5.00008ZM14.1667 10.8337C12.3258 10.8337 10.8334 12.326 10.8334 14.167V15.0003C10.8334 16.8413 12.3258 18.3337 14.1667 18.3337H15.0001C16.841 18.3337 18.3334 16.8413 18.3334 15.0003V14.167C18.3334 12.326 16.841 10.8337 15.0001 10.8337H14.1667Z" fill="#121212"/>
</svg>
