<svg width="18" height="14" viewBox="0 0 18 14" fill="none" xmlns="http://www.w3.org/2000/svg">
<path d="M5.2513 7.83203H6.91797V8.8737C6.91797 9.05425 6.97714 9.2037 7.09547 9.32203C7.2138 9.44036 7.36297 9.49925 7.54297 9.4987C7.72297 9.49814 7.87241 9.43898 7.9913 9.3212C8.11019 9.20342 8.16908 9.05425 8.16797 8.8737V5.1237C8.16797 4.94314 8.1088 4.79398 7.99047 4.6762C7.87214 4.55842 7.72297 4.49925 7.54297 4.4987C7.36297 4.49814 7.2138 4.55731 7.09547 4.6762C6.97714 4.79509 6.91797 4.94425 6.91797 5.1237V6.58203H5.2513V5.1237C5.2513 4.94314 5.19214 4.79398 5.0738 4.6762C4.95547 4.55842 4.8063 4.49925 4.6263 4.4987C4.4463 4.49814 4.29714 4.55731 4.1788 4.6762C4.06047 4.79509 4.0013 4.94425 4.0013 5.1237V8.8737C4.0013 9.05425 4.06047 9.2037 4.1788 9.32203C4.29714 9.44036 4.4463 9.49925 4.6263 9.4987C4.8063 9.49814 4.95575 9.43898 5.07464 9.3212C5.19352 9.20342 5.25241 9.05425 5.2513 8.8737V7.83203ZM10.2513 9.4987H13.168C13.4041 9.4987 13.6021 9.4187 13.7621 9.2587C13.9221 9.0987 14.0019 8.90092 14.0013 8.66536V5.33203C14.0013 5.09592 13.9213 4.89814 13.7613 4.7387C13.6013 4.57925 13.4035 4.49925 13.168 4.4987H10.2513C10.1402 4.4987 10.043 4.54036 9.95963 4.6237C9.8763 4.70703 9.83463 4.80425 9.83463 4.91536V9.08203C9.83463 9.19314 9.8763 9.29036 9.95963 9.3737C10.043 9.45703 10.1402 9.4987 10.2513 9.4987ZM11.0846 8.2487V5.7487H12.7513V8.2487H11.0846ZM2.33464 13.6654C1.8763 13.6654 1.48408 13.5023 1.15797 13.1762C0.831858 12.8501 0.668524 12.4576 0.667969 11.9987V1.9987C0.667969 1.54036 0.831302 1.14814 1.15797 0.822031C1.48464 0.49592 1.87686 0.332587 2.33464 0.332031H15.668C16.1263 0.332031 16.5188 0.495364 16.8455 0.822031C17.1721 1.1487 17.3352 1.54092 17.3346 1.9987V11.9987C17.3346 12.457 17.1716 12.8495 16.8455 13.1762C16.5194 13.5029 16.1269 13.6659 15.668 13.6654H2.33464Z" fill="#737373"/>
</svg>

