<svg width="16" height="14" viewBox="0 0 16 14" fill="none" xmlns="http://www.w3.org/2000/svg">
<path d="M10.0833 8.2487H11.75V5.7487H10.0833M13 8.66536C13 9.16536 12.6667 9.4987 12.1667 9.4987H11.5417V10.7487H10.2917V9.4987H9.66667C9.16667 9.4987 8.83333 9.16536 8.83333 8.66536V5.33203C8.83333 4.83203 9.16667 4.4987 9.66667 4.4987H12.1667C12.6667 4.4987 13 4.83203 13 5.33203M13.8333 0.332031H2.16667C1.72464 0.332031 1.30072 0.507626 0.988155 0.820187C0.675595 1.13275 0.5 1.55667 0.5 1.9987V11.9987C0.5 12.4407 0.675595 12.8646 0.988155 13.1772C1.30072 13.4898 1.72464 13.6654 2.16667 13.6654H13.8333C14.2754 13.6654 14.6993 13.4898 15.0118 13.1772C15.3244 12.8646 15.5 12.4407 15.5 11.9987V1.9987C15.5 1.55667 15.3244 1.13275 15.0118 0.820187C14.6993 0.507626 14.2754 0.332031 13.8333 0.332031ZM7.16667 8.2487V9.4987H3V4.4987H4.25V8.2487H7.16667Z" fill="#737373"/>
</svg>
