<svg width="18" height="18" viewBox="0 0 18 18" fill="none" xmlns="http://www.w3.org/2000/svg">
<path d="M6.58974 3.5413C7.08808 2.08297 9.10308 2.0388 9.69391 3.4088L9.74391 3.54214L10.4164 5.5088C10.5705 5.95983 10.8196 6.37256 11.1468 6.71915C11.474 7.06575 11.8717 7.33815 12.3131 7.51797L12.4939 7.58547L14.4606 8.25714C15.9189 8.75547 15.9631 10.7705 14.5939 11.3613L14.4606 11.4113L12.4939 12.0838C12.0427 12.2378 11.6298 12.4868 11.2831 12.814C10.9363 13.1412 10.6638 13.539 10.4839 13.9805L10.4164 14.1605L9.74474 16.128C9.24641 17.5863 7.23141 17.6305 6.64141 16.2613L6.58974 16.128L5.91808 14.1613C5.76406 13.7101 5.51505 13.2972 5.18786 12.9505C4.86067 12.6037 4.4629 12.3312 4.02141 12.1513L3.84141 12.0838L1.87474 11.4121C0.415575 10.9138 0.371409 8.8988 1.74141 8.3088L1.87474 8.25714L3.84141 7.58547C4.29244 7.43135 4.70517 7.1823 5.05176 6.85511C5.39836 6.52792 5.67075 6.13021 5.85058 5.6888L5.91808 5.5088L6.58974 3.5413ZM14.8339 0.667969C14.9898 0.667969 15.1426 0.711701 15.2749 0.794195C15.4072 0.876689 15.5136 0.994638 15.5822 1.13464L15.6222 1.23214L15.9139 2.08714L16.7697 2.3788C16.926 2.43188 17.0629 2.53015 17.1633 2.66115C17.2636 2.79215 17.3228 2.94998 17.3333 3.11465C17.3438 3.27932 17.3052 3.44341 17.2224 3.58613C17.1396 3.72884 17.0163 3.84375 16.8681 3.9163L16.7697 3.9563L15.9147 4.24797L15.6231 5.1038C15.5699 5.25999 15.4716 5.39688 15.3405 5.49713C15.2095 5.59737 15.0516 5.65646 14.8869 5.6669C14.7223 5.67735 14.5582 5.63867 14.4156 5.55578C14.2729 5.4729 14.1581 5.34952 14.0856 5.2013L14.0456 5.1038L13.7539 4.2488L12.8981 3.95714C12.7418 3.90406 12.6049 3.80579 12.5046 3.67479C12.4042 3.54379 12.345 3.38595 12.3345 3.22129C12.324 3.05662 12.3626 2.89253 12.4454 2.74981C12.5282 2.6071 12.6515 2.49219 12.7997 2.41964L12.8981 2.37964L13.7531 2.08797L14.0447 1.23214C14.1009 1.06749 14.2072 0.924559 14.3488 0.823384C14.4903 0.72221 14.6599 0.667864 14.8339 0.667969Z" fill="#737373"/>
</svg>
